<svg width="20" height="21" viewBox="0 0 20 21" fill="none" xmlns="http://www.w3.org/2000/svg">
<path fill-rule="evenodd" clip-rule="evenodd" d="M12.5023 0.796306C11.7616 0.277116 10.8908 0 10 0C8.80547 0 7.65986 0.497812 6.81519 1.38392C5.97053 2.27003 5.496 3.47185 5.496 4.725C5.496 5.65952 5.76016 6.57305 6.25506 7.35007C6.74997 8.1271 7.4534 8.73271 8.27639 9.09034C9.09939 9.44796 10.005 9.54153 10.8787 9.35922C11.7524 9.1769 12.5549 8.72689 13.1848 8.06608C13.8147 7.40528 14.2437 6.56337 14.4175 5.64681C14.5912 4.73024 14.502 3.7802 14.1611 2.91682C13.8203 2.05344 13.243 1.3155 12.5023 0.796306ZM3.48656 14.1129C2.55132 15.0817 2.01728 16.3978 2 17.7765C4.19509 19.8516 7.04516 21 10 21C12.9548 21 15.8049 19.8516 18 17.7765C17.9827 16.3978 17.4486 15.0817 16.5134 14.113C15.5782 13.1442 14.317 12.6007 13.0027 12.6H6.99733C5.68302 12.6007 4.42179 13.1442 3.48656 14.1129Z" fill="#0098EE"/>
</svg>
