<svg width="20" height="21" viewBox="0 0 20 21" fill="none" xmlns="http://www.w3.org/2000/svg">
<path d="M12.4231 1.97538C12.7106 1.97482 12.9891 2.07492 13.2104 2.25831C13.335 2.36158 13.4379 2.48841 13.5134 2.63153C13.5889 2.77465 13.6354 2.93125 13.6502 3.09237C13.6651 3.25349 13.648 3.41596 13.6 3.57046C13.5519 3.72497 13.4739 3.86849 13.3703 3.99279L7.85935 10.5863L13.1735 17.1921C13.2757 17.3179 13.352 17.4627 13.398 17.6181C13.4441 17.7735 13.459 17.9365 13.4418 18.0977C13.4247 18.2589 13.3758 18.4151 13.2981 18.5573C13.2204 18.6996 13.1154 18.825 12.989 18.9266C12.8617 19.0385 12.7127 19.123 12.5512 19.1747C12.3897 19.2263 12.2193 19.244 12.0507 19.2267C11.882 19.2094 11.7188 19.1574 11.5712 19.074C11.4236 18.9906 11.2949 18.8776 11.193 18.742L5.25148 11.3613C5.07055 11.1412 4.97164 10.8651 4.97164 10.5801C4.97164 10.2952 5.07055 10.0191 5.25148 9.799L11.4021 2.41823C11.5255 2.26936 11.6823 2.15168 11.8597 2.07474C12.0371 1.99779 12.2301 1.96375 12.4231 1.97538Z" fill="#0098EE"/>
</svg>
