<svg width="20" height="21" viewBox="0 0 20 21" fill="none" xmlns="http://www.w3.org/2000/svg">
<path d="M7.23229 19.2578C6.94487 19.2583 6.66633 19.1582 6.44501 18.9748C6.32045 18.8716 6.21749 18.7447 6.14202 18.6016C6.06654 18.4585 6.02005 18.3019 6.0052 18.1408C5.99034 17.9797 6.00742 17.8172 6.05545 17.6627C6.10348 17.5082 6.18151 17.3647 6.28509 17.2404L11.7961 10.6469L6.48192 4.04108C6.37973 3.91525 6.30343 3.77047 6.25738 3.61505C6.21134 3.45964 6.19646 3.29666 6.21361 3.13548C6.23075 2.97429 6.27958 2.81809 6.3573 2.67584C6.43501 2.5336 6.54007 2.40811 6.66643 2.30659C6.79371 2.19461 6.94276 2.11014 7.10423 2.05849C7.2657 2.00683 7.4361 1.98912 7.60475 2.00644C7.77339 2.02377 7.93663 2.07576 8.08422 2.15917C8.23182 2.24258 8.36058 2.35559 8.46242 2.49111L14.4039 9.87189C14.5849 10.092 14.6838 10.3681 14.6838 10.653C14.6838 10.938 14.5849 11.214 14.4039 11.4342L8.2533 18.8149C8.1299 18.9638 7.97314 19.0815 7.79574 19.1584C7.61834 19.2354 7.42531 19.2694 7.23229 19.2578Z" fill="#C6C6C8"/>
</svg>
