<svg width="23" height="23" viewBox="0 0 23 23" fill="none" xmlns="http://www.w3.org/2000/svg">
<rect x="0.766667" y="1.32844" width="20.7859" height="20.2241" fill="#7D7D7D"/>
<path d="M19.3711 0.766667H3.62889C2.86978 0.766667 2.14176 1.06822 1.60499 1.60499C1.06822 2.14176 0.766667 2.86978 0.766667 3.62889V19.3711C0.766667 20.1302 1.06822 20.8582 1.60499 21.395C2.14176 21.9318 2.86978 22.2333 3.62889 22.2333H19.3711C20.1302 22.2333 20.8582 21.9318 21.395 21.395C21.9318 20.8582 22.2333 20.1302 22.2333 19.3711V3.62889C22.2333 2.86978 21.9318 2.14176 21.395 1.60499C20.8582 1.06822 20.1302 0.766667 19.3711 0.766667Z" stroke="#E3E3E3" stroke-width="1.5" stroke-miterlimit="10"/>
<path d="M9.11481 22.2333V0.766667M0.766667 9.11481H22.2333" stroke="#E3E3E3" stroke-width="1.5" stroke-miterlimit="10" stroke-linecap="round"/>
</svg>
