<svg width="79" height="80" viewBox="0 0 79 80" fill="none" xmlns="http://www.w3.org/2000/svg">
<path d="M66.4847 45.5021C66.4847 62.0882 51.8103 70.9837 35.8668 70.9837C19.9232 70.9837 6.99845 57.538 6.99845 40.9519C6.99845 24.3657 19.9232 10.9201 35.8668 10.9201C51.8103 10.9201 66.4847 28.916 66.4847 45.5021Z" fill="#0098EE"/>
<path d="M64.9509 62.6019C68.7188 57.8846 71.3392 52.2926 72.5905 46.2989C73.8418 40.3053 73.6871 34.0863 72.1395 28.1679C70.592 22.2496 67.6971 16.8061 63.6997 12.2977C59.7023 7.78938 54.72 4.34885 49.1742 2.26714C43.6284 0.18544 37.6822 -0.476202 31.8387 0.33818C25.9951 1.15256 20.426 3.41901 15.6025 6.94583C10.7789 10.4726 6.84277 15.1561 4.12697 20.6C1.41118 26.0439 -0.00438902 32.0882 1.02225e-05 38.2216C0.00206563 47.1388 3.02281 55.7705 8.53218 62.6019L8.47969 62.6473C8.6634 62.878 8.87335 63.0751 9.06283 63.3003C9.29903 63.5832 9.55202 63.8464 9.79766 64.1216C10.5325 64.9496 11.2867 65.7465 12.0809 66.4968C12.321 66.7237 12.5701 66.9369 12.8157 67.1567C13.6555 67.9099 14.5174 68.6233 15.4139 69.2898C15.5296 69.3749 15.6322 69.479 15.7487 69.5644V69.5297C21.8954 74.0295 29.2279 76.4444 36.7439 76.4444C44.2599 76.4444 51.5924 74.0295 57.739 69.5297V69.5639C57.8556 69.4784 57.9582 69.3744 58.0739 69.2892C58.9694 68.6228 59.8323 67.9094 60.6721 67.1561C60.9177 66.9377 61.1668 66.7231 61.4069 66.4962C62.2008 65.7457 62.9553 64.9488 63.6901 64.121C63.935 63.8464 64.1872 63.5826 64.4249 63.2998C64.6136 63.0745 64.8244 62.8774 65.0081 62.6467L64.9509 62.6019ZM36.7415 16.3803C39.0773 16.3803 41.3606 17.1008 43.3027 18.4508C45.2448 19.8008 46.7585 21.7195 47.6523 23.9645C48.5462 26.2094 48.7801 28.6796 48.3244 31.0628C47.8687 33.446 46.7439 35.6351 45.0923 37.3533C43.4407 39.0715 41.3364 40.2416 39.0455 40.7157C36.7546 41.1897 34.3801 40.9464 32.2221 40.0165C30.0642 39.0867 28.2197 37.512 26.9221 35.4916C25.6244 33.4712 24.9318 31.0959 24.9318 28.666C24.9318 25.4076 26.176 22.2827 28.3908 19.9787C30.6055 17.6747 33.6094 16.3803 36.7415 16.3803ZM15.765 62.6019C15.8103 59.0171 17.2106 55.595 19.6629 53.0761C22.1151 50.5571 25.4221 49.1439 28.8683 49.1422H44.6147C48.0609 49.144 51.3679 50.5572 53.8201 53.0762C56.2724 55.5951 57.6727 59.0172 57.718 62.6019C51.9624 67.9975 44.4893 70.9835 36.7415 70.9835C28.9938 70.9835 21.5207 67.9975 15.765 62.6019Z" fill="#E3E3E3"/>
<ellipse cx="62.6814" cy="64" rx="16.1181" ry="16" fill="#F6F6F6"/>
<ellipse cx="54.6223" cy="64.8889" rx="2.68635" ry="2.66667" fill="#0098EE"/>
<ellipse cx="62.6815" cy="64.8889" rx="2.68635" ry="2.66667" fill="#0098EE"/>
<ellipse cx="70.7404" cy="64.8889" rx="2.68635" ry="2.66667" fill="#0098EE"/>
</svg>
